<svg xmlns="http://www.w3.org/2000/svg" xmlns:xlink="http://www.w3.org/1999/xlink" viewBox="0 0 430 430" width="430" height="430" preserveAspectRatio="xMidYMid meet" style="width: 100%; height: 100%; transform: translate3d(0px, 0px, 0px); content-visibility: visible;"><defs><clipPath id="__lottie_element_147"><rect width="430" height="430" x="0" y="0"/></clipPath><clipPath id="__lottie_element_149"><path d="M0,0 L430,0 L430,430 L0,430z"/></clipPath></defs><g clip-path="url(#__lottie_element_147)"><g clip-path="url(#__lottie_element_149)" transform="matrix(1,0,0,1,0,0)" opacity="1" style="display: block;"><g transform="matrix(0.7071067690849304,-0.7071067690849304,0.7071067690849304,0.7071067690849304,211.443603515625,204.69808959960938)" opacity="1" style="display: none;"><g opacity="1" transform="matrix(1,0,0,1,0,0)"><path stroke-linecap="round" stroke-linejoin="round" fill-opacity="0" class="secondary" stroke="rgb(8,168,138)" stroke-opacity="1" stroke-width="12" d=" M-37.39119338989258,21.478126525878906 C-37.39119338989258,21.478126525878906 112.91613006591797,21.006925582885742 112.91613006591797,21.006925582885742 C112.91613006591797,21.006925582885742 112.91613006591797,23.92873191833496 112.91613006591797,23.92873191833496 C112.91613006591797,23.92873191833496 144.33302307128906,23.92873191833496 144.33302307128906,23.92873191833496 C144.33302307128906,23.92873191833496 144.33302307128906,22.113136291503906 144.33302307128906,22.113136291503906 C144.33302307128906,22.113136291503906 175.75003051757812,22.113136291503906 175.75003051757812,22.113136291503906 C175.75003051757812,22.113136291503906 175.75003051757812,23.92873191833496 175.75003051757812,23.92873191833496 C175.75003051757812,23.92873191833496 207.1661376953125,23.92873191833496 207.1661376953125,23.92873191833496 C207.1661376953125,23.92873191833496 207.1661376953125,21.006925582885742 207.1661376953125,21.006925582885742 C207.1661376953125,21.006925582885742 220.13702392578125,20.99968719482422 220.13702392578125,20.99968719482422 C226.27203369140625,20.99968719482422 231.131591796875,16.926149368286133 231.131591796875,10.791150093078613 C231.131591796875,10.791150093078613 231.24403381347656,5.671505928039551 231.24403381347656,5.671505928039551 C231.24403381347656,-0.46349403262138367 226.27113342285156,-5.436493873596191 220.13702392578125,-5.436493873596191 C220.13702392578125,-5.436493873596191 -37.39119338989258,-4.9580559730529785 -37.39119338989258,-4.9580559730529785"/></g></g><g transform="matrix(0.7071067690849304,-0.7071067690849304,0.7071067690849304,0.7071067690849304,211.443603515625,204.69808959960938)" opacity="1" style="display: none;"><g opacity="1" transform="matrix(1,0,0,1,0,0)"><path stroke-linecap="round" stroke-linejoin="round" fill-opacity="0" class="primary" stroke="rgb(18,19,49)" stroke-opacity="1" stroke-width="12" d=" M-68.90599822998047,-3.6590988636016846 C-68.90599822998047,-3.6590988636016846 -68.90599822998047,18.715028762817383 -68.90599822998047,18.715028762817383 M-220.875,-3.6434149742126465 C-220.875,-3.6434149742126465 -220.875,18.7181453704834 -220.875,18.7181453704834 M-68.88597106933594,18.834911346435547 C-68.88597106933594,23.151704788208008 -102.89507293701172,26.65013885498047 -144.8480682373047,26.65013885498047 C-186.8010711669922,26.65013885498047 -220.81097412109375,23.151704788208008 -220.81097412109375,18.834911346435547 C-220.81097412109375,14.518118858337402 -186.8010711669922,11.018885612487793 -144.8480682373047,11.018885612487793 C-102.89507293701172,11.018885612487793 -68.88597106933594,14.518118858337402 -68.88597106933594,18.834911346435547z M-99.60507202148438,18.835012435913086 C-99.60507202148438,21.405609130859375 -119.86106872558594,23.489768981933594 -144.8480682373047,23.489768981933594 C-169.83506774902344,23.489768981933594 -190.0919647216797,21.405508041381836 -190.0919647216797,18.834911346435547 C-190.0919647216797,16.264314651489258 -169.83506774902344,14.179255485534668 -144.8480682373047,14.179255485534668 C-119.86106872558594,14.179255485534668 -99.60507202148438,16.264415740966797 -99.60507202148438,18.835012435913086z M-76.03853607177734,22.516170501708984 C-76.03853607177734,22.516170501708984 -48.017635345458984,22.699169158935547 -48.017635345458984,22.699169158935547 C-41.094635009765625,22.699169158935547 -35.481632232666016,17.08517074584961 -35.481632232666016,10.162169456481934 C-35.481632232666016,10.162169456481934 -35.481632232666016,10.162169456481934 -35.481632232666016,10.162169456481934 C-35.481632232666016,10.162169456481934 -35.665122985839844,5.2127838134765625 -35.665122985839844,5.2127838134765625 C-35.665122985839844,5.2127838134765625 -35.665122985839844,5.2127838134765625 -35.665122985839844,5.2127838134765625 C-35.665122985839844,-1.7102160453796387 -41.27812576293945,-7.323215961456299 -48.20112609863281,-7.323215961456299 C-48.20112609863281,-7.323215961456299 -76.22112274169922,-7.505216121673584 -76.22112274169922,-7.505216121673584"/></g><g opacity="1" transform="matrix(1,0,0,1,0,0)"><path stroke-linecap="round" stroke-linejoin="round" fill-opacity="0" class="primary" stroke="rgb(18,19,49)" stroke-opacity="1" stroke-width="12" d=" M-68.97681427001953,-3.6516499519348145 C-68.97681427001953,-7.968442440032959 -102.98591613769531,-11.467676162719727 -144.9389190673828,-11.467676162719727 C-186.89199829101562,-11.468000411987305 -220.9010009765625,-7.968999862670898 -220.90199279785156,-3.6519999504089355"/></g></g><g transform="matrix(0.7071067690849304,-0.7071067690849304,0.7071067690849304,0.7071067690849304,211.443603515625,204.69808959960938)" opacity="1" style="display: block;"><g opacity="1" transform="matrix(1,0,0,1,0,0)"><path stroke-linecap="round" stroke-linejoin="round" fill-opacity="0" class="secondary" stroke="rgb(8,168,138)" stroke-opacity="1" stroke-width="12" d=" M-35.37099838256836,25.871999740600586 C-35.37099838256836,25.871999740600586 112.8010025024414,25.569000244140625 112.8010025024414,25.569000244140625 C112.8010025024414,25.569000244140625 112.8010025024414,54.604000091552734 112.8010025024414,54.604000091552734 C112.8010025024414,54.604000091552734 144.2169952392578,54.604000091552734 144.2169952392578,54.604000091552734 C144.2169952392578,54.604000091552734 144.2169952392578,36.5629997253418 144.2169952392578,36.5629997253418 C144.2169952392578,36.5629997253418 175.63400268554688,36.5629997253418 175.63400268554688,36.5629997253418 C175.63400268554688,36.5629997253418 175.63400268554688,54.604000091552734 175.63400268554688,54.604000091552734 C175.63400268554688,54.604000091552734 207.05099487304688,54.604000091552734 207.05099487304688,54.604000091552734 C207.05099487304688,54.604000091552734 207.05099487304688,25.569000244140625 207.05099487304688,25.569000244140625 C207.05099487304688,25.569000244140625 220.02099609375,25.496999740600586 220.02099609375,25.496999740600586 C226.156005859375,25.496999740600586 231.1280059814453,20.52400016784668 231.1280059814453,14.388999938964844 C231.1280059814453,14.388999938964844 231.1280059814453,-0.17499999701976776 231.1280059814453,-0.17499999701976776 C231.1280059814453,-6.309999942779541 226.156005859375,-11.282999992370605 220.02099609375,-11.282999992370605 C220.02099609375,-11.282999992370605 -35.37099838256836,-10.907999992370605 -35.37099838256836,-10.907999992370605"/></g></g><g transform="matrix(0.7071067690849304,-0.7071067690849304,0.7071067690849304,0.7071067690849304,211.443603515625,204.69808959960938)" opacity="1" style="display: block;"><g opacity="1" transform="matrix(1,0,0,1,0,0)"><path stroke-linecap="round" stroke-linejoin="round" fill-opacity="0" class="primary" stroke="rgb(18,19,49)" stroke-opacity="1" stroke-width="12" d=" M-68.90599822998047,7.218999862670898 C-68.90599822998047,7.218999862670898 -68.90599822998047,7.218999862670898 -68.90599822998047,7.218999862670898 M-220.875,7.375 C-220.875,7.375 -220.875,7.25 -220.875,7.25 M-69.00199890136719,7.142000198364258 C-69.00199890136719,-34.59199905395508 -103.01200103759766,-68.42500305175781 -144.96499633789062,-68.42500305175781 C-186.91799926757812,-68.42500305175781 -220.927001953125,-34.59199905395508 -220.927001953125,7.142000198364258 C-220.927001953125,48.875999450683594 -186.91799926757812,82.70800018310547 -144.96499633789062,82.70800018310547 C-103.01200103759766,82.70800018310547 -69.00199890136719,48.875999450683594 -69.00199890136719,7.142000198364258z M-99.72200012207031,7.142000198364258 C-99.72200012207031,-17.71500015258789 -119.97799682617188,-37.8650016784668 -144.96499633789062,-37.8650016784668 C-169.95199584960938,-37.8650016784668 -190.20799255371094,-17.71500015258789 -190.20799255371094,7.142000198364258 C-190.20799255371094,31.999000549316406 -169.95199584960938,52.14799880981445 -144.96499633789062,52.14799880981445 C-119.97799682617188,52.14799880981445 -99.72200012207031,31.999000549316406 -99.72200012207031,7.142000198364258z M-69.00199890136719,7.142000198364258 C-69.00199890136719,-34.59199905395508 -103.01200103759766,-68.42500305175781 -144.96499633789062,-68.42500305175781 C-186.91799926757812,-68.42500305175781 -220.927001953125,-34.59199905395508 -220.927001953125,7.142000198364258 C-220.927001953125,48.875999450683594 -186.91799926757812,82.70800018310547 -144.96499633789062,82.70800018310547 C-103.01200103759766,82.70800018310547 -69.00199890136719,48.875999450683594 -69.00199890136719,7.142000198364258z M-99.72200012207031,7.142000198364258 C-99.72200012207031,-17.71500015258789 -119.97799682617188,-37.8650016784668 -144.96499633789062,-37.8650016784668 C-169.95199584960938,-37.8650016784668 -190.20799255371094,-17.71500015258789 -190.20799255371094,7.142000198364258 C-190.20799255371094,31.999000549316406 -169.95199584960938,52.14799880981445 -144.96499633789062,52.14799880981445 C-119.97799682617188,52.14799880981445 -99.72200012207031,31.999000549316406 -99.72200012207031,7.142000198364258z M-75.927001953125,44.553001403808594 C-75.927001953125,44.553001403808594 -47.90700149536133,44.736000061035156 -47.90700149536133,44.736000061035156 C-40.98400115966797,44.736000061035156 -35.37099838256836,39.12200164794922 -35.37099838256836,32.19900131225586 C-35.37099838256836,32.19900131225586 -35.37099838256836,32.19900131225586 -35.37099838256836,32.19900131225586 C-35.37099838256836,32.19900131225586 -35.37099838256836,-17.236000061035156 -35.37099838256836,-17.236000061035156 C-35.37099838256836,-17.236000061035156 -35.37099838256836,-17.236000061035156 -35.37099838256836,-17.236000061035156 C-35.37099838256836,-24.159000396728516 -40.98400115966797,-29.77199935913086 -47.90700149536133,-29.77199935913086 C-47.90700149536133,-29.77199935913086 -75.927001953125,-29.95400047302246 -75.927001953125,-29.95400047302246"/></g></g><g transform="matrix(0.7071067690849304,-0.7071067690849304,-0.7071067690849304,-0.7071067690849304,221.54391479492188,216.44540405273438)" opacity="1" style="display: none;"><g opacity="1" transform="matrix(1,0,0,1,0,0)"><path stroke-linecap="round" stroke-linejoin="round" fill-opacity="0" class="secondary" stroke="rgb(8,168,138)" stroke-opacity="1" stroke-width="12" d=" M-37.39119338989258,21.478126525878906 C-37.39119338989258,21.478126525878906 112.91613006591797,21.006925582885742 112.91613006591797,21.006925582885742 C112.91613006591797,21.006925582885742 112.91613006591797,23.92873191833496 112.91613006591797,23.92873191833496 C112.91613006591797,23.92873191833496 144.33302307128906,23.92873191833496 144.33302307128906,23.92873191833496 C144.33302307128906,23.92873191833496 144.33302307128906,22.113136291503906 144.33302307128906,22.113136291503906 C144.33302307128906,22.113136291503906 175.75003051757812,22.113136291503906 175.75003051757812,22.113136291503906 C175.75003051757812,22.113136291503906 175.75003051757812,23.92873191833496 175.75003051757812,23.92873191833496 C175.75003051757812,23.92873191833496 207.1661376953125,23.92873191833496 207.1661376953125,23.92873191833496 C207.1661376953125,23.92873191833496 207.1661376953125,21.006925582885742 207.1661376953125,21.006925582885742 C207.1661376953125,21.006925582885742 220.13702392578125,20.99968719482422 220.13702392578125,20.99968719482422 C226.27203369140625,20.99968719482422 231.131591796875,16.926149368286133 231.131591796875,10.791150093078613 C231.131591796875,10.791150093078613 231.24403381347656,5.671505928039551 231.24403381347656,5.671505928039551 C231.24403381347656,-0.46349403262138367 226.27113342285156,-5.436493873596191 220.13702392578125,-5.436493873596191 C220.13702392578125,-5.436493873596191 -37.39119338989258,-4.9580559730529785 -37.39119338989258,-4.9580559730529785"/></g></g><g transform="matrix(0.7071067690849304,-0.7071067690849304,-0.7071067690849304,-0.7071067690849304,221.54391479492188,216.44540405273438)" opacity="1" style="display: none;"><g opacity="1" transform="matrix(1,0,0,1,0,0)"><path stroke-linecap="round" stroke-linejoin="round" fill-opacity="0" class="primary" stroke="rgb(18,19,49)" stroke-opacity="1" stroke-width="12" d=" M-68.90599822998047,-4.875 C-68.90599822998047,-4.875 -68.90599822998047,20 -68.90599822998047,20 M-220.875,-4.875 C-220.875,-4.875 -220.875,20 -220.875,20 M-99.94599914550781,-4.960999965667725 C-99.94599914550781,-4.895999908447266 -120.2020034790039,-4.8429999351501465 -145.18899536132812,-4.8429999351501465 C-170.17599487304688,-4.8429999351501465 -190.4320068359375,-4.895999908447266 -190.4320068359375,-4.960999965667725 C-190.4320068359375,-5.026000022888184 -170.17599487304688,-5.078999996185303 -145.18899536132812,-5.078999996185303 C-120.2020034790039,-5.078999996185303 -99.94599914550781,-5.026000022888184 -99.94599914550781,-4.960999965667725z M-76.0510025024414,20.05299949645996 C-76.0510025024414,20.05299949645996 -48.029998779296875,20.236000061035156 -48.029998779296875,20.236000061035156 C-41.106998443603516,20.236000061035156 -35.49399948120117,14.621999740600586 -35.49399948120117,7.698999881744385 C-35.49399948120117,7.698999881744385 -35.49399948120117,7.698999881744385 -35.49399948120117,7.698999881744385 C-35.49399948120117,7.698999881744385 -35.698001861572266,7.7220001220703125 -35.698001861572266,7.7220001220703125 C-35.698001861572266,7.7220001220703125 -35.698001861572266,7.7220001220703125 -35.698001861572266,7.7220001220703125 C-35.698001861572266,0.7990000247955322 -41.31100082397461,-4.814000129699707 -48.23400115966797,-4.814000129699707 C-48.23400115966797,-4.814000129699707 -76.25399780273438,-4.995999813079834 -76.25399780273438,-4.995999813079834"/></g><g opacity="1" transform="matrix(1,0,0,1,0,0)"><path stroke-linecap="round" stroke-linejoin="round" fill-opacity="0" class="primary" stroke="rgb(18,19,49)" stroke-opacity="1" stroke-width="12" d=" M-68.9739990234375,-4.857999801635742 C-68.9739990234375,-4.748000144958496 -102.98300170898438,-4.659999847412109 -144.93600463867188,-4.659999847412109 C-186.88900756835938,-4.659999847412109 -220.8990020751953,-4.748000144958496 -220.8990020751953,-4.857999801635742 C-220.8990020751953,-4.9679999351501465 -186.88900756835938,-5.057000160217285 -144.93600463867188,-5.057000160217285 C-102.98300170898438,-5.057000160217285 -68.9739990234375,-4.9679999351501465 -68.9739990234375,-4.857999801635742z"/></g><g opacity="1" transform="matrix(1,0,0,1,0,0)"><path stroke-linecap="round" stroke-linejoin="round" fill-opacity="0" class="primary" stroke="rgb(18,19,49)" stroke-opacity="1" stroke-width="12" d=" M-68.87300109863281,20.142000198364258 C-68.87300109863281,20.031999588012695 -102.88200378417969,19.94300079345703 -144.8350067138672,19.94300079345703 C-186.78799438476562,19.94300079345703 -220.7969970703125,20.031999588012695 -220.79800415039062,20.142000198364258"/></g></g></g></g></svg>