<svg xmlns="http://www.w3.org/2000/svg" xmlns:xlink="http://www.w3.org/1999/xlink" viewBox="0 0 430 430" width="430" height="430" preserveAspectRatio="xMidYMid meet" style="width: 100%; height: 100%; transform: translate3d(0px, 0px, 0px); content-visibility: visible;"><defs><clipPath id="__lottie_element_147"><rect width="430" height="430" x="0" y="0"/></clipPath><clipPath id="__lottie_element_149"><path d="M0,0 L430,0 L430,430 L0,430z"/></clipPath></defs><g clip-path="url(#__lottie_element_147)"><g clip-path="url(#__lottie_element_149)" transform="matrix(1,0,0,1,0,0)" opacity="1" style="display: block;"><g transform="matrix(0.7071067690849304,-0.7071067690849304,0.7071067690849304,0.7071067690849304,211.443603515625,204.69808959960938)" opacity="1" style="display: block;"><g opacity="1" transform="matrix(1,0,0,1,0,0)"><path stroke-linecap="round" stroke-linejoin="round" fill-opacity="0" class="secondary" stroke="rgb(8,168,138)" stroke-opacity="1" stroke-width="18" d=" M-36.2103385925293,24.046457290649414 C-36.2103385925293,24.046457290649414 112.84883117675781,23.673574447631836 112.84883117675781,23.673574447631836 C112.84883117675781,23.673574447631836 112.84883117675781,41.85921096801758 112.84883117675781,41.85921096801758 C112.84883117675781,41.85921096801758 144.2652130126953,41.85921096801758 144.2652130126953,41.85921096801758 C144.2652130126953,41.85921096801758 144.2652130126953,30.559450149536133 144.2652130126953,30.559450149536133 C144.2652130126953,30.559450149536133 175.6822052001953,30.559450149536133 175.6822052001953,30.559450149536133 C175.6822052001953,30.559450149536133 175.6822052001953,41.85921096801758 175.6822052001953,41.85921096801758 C175.6822052001953,41.85921096801758 207.0988311767578,41.85921096801758 207.0988311767578,41.85921096801758 C207.0988311767578,41.85921096801758 207.0988311767578,23.673574447631836 207.0988311767578,23.673574447631836 C207.0988311767578,23.673574447631836 220.0692138671875,23.628480911254883 220.0692138671875,23.628480911254883 C226.20420837402344,23.628480911254883 231.12950134277344,19.029184341430664 231.12950134277344,12.894185066223145 C231.12950134277344,12.894185066223145 231.17620849609375,2.2540738582611084 231.17620849609375,2.2540738582611084 C231.17620849609375,-3.8809261322021484 226.20382690429688,-8.853925704956055 220.0692138671875,-8.853925704956055 C220.0692138671875,-8.853925704956055 -36.2103385925293,-8.43595027923584 -36.2103385925293,-8.43595027923584"/></g></g><g transform="matrix(0.7071067690849304,-0.7071067690849304,0.7071067690849304,0.7071067690849304,211.443603515625,204.69808959960938)" opacity="1" style="display: block;"><g opacity="1" transform="matrix(1,0,0,1,0,0)"><path stroke-linecap="round" stroke-linejoin="round" fill-opacity="0" class="primary" stroke="rgb(16,145,32)" stroke-opacity="1" stroke-width="18" d=" M-68.90599822998047,2.699427604675293 C-68.90599822998047,2.699427604675293 -68.90599822998047,11.995306968688965 -68.90599822998047,11.995306968688965 M-220.875,2.7971298694610596 C-220.875,2.7971298694610596 -220.875,12.014721870422363 -220.875,12.014721870422363 M-68.95378875732422,11.999521255493164 C-68.95378875732422,38.31563949584961 -102.96341705322266,59.648860931396484 -144.91641235351562,59.648860931396484 C-186.86941528320312,59.648860931396484 -220.87879943847656,38.31563949584961 -220.87879943847656,11.999521255493164 C-220.87879943847656,-14.316595077514648 -186.86941528320312,-35.649566650390625 -144.91641235351562,-35.649566650390625 C-102.96341705322266,-35.649566650390625 -68.95378875732422,-14.316595077514648 -68.95378875732422,11.999521255493164z M-99.67341613769531,12.000147819519043 C-99.67341613769531,27.673704147338867 -119.9294204711914,40.37976837158203 -144.91641235351562,40.37976837158203 C-169.90341186523438,40.37976837158203 -190.1597900390625,27.673078536987305 -190.1597900390625,11.999521255493164 C-190.1597900390625,-3.6740353107452393 -169.90341186523438,-16.380474090576172 -144.91641235351562,-16.380474090576172 C-119.9294204711914,-16.380474090576172 -99.67341613769531,-3.6734089851379395 -99.67341613769531,12.000147819519043z M-75.97334289550781,35.39725875854492 C-75.97334289550781,35.39725875854492 -47.952964782714844,35.58026123046875 -47.952964782714844,35.58026123046875 C-41.029964447021484,35.58026123046875 -35.41696548461914,29.966259002685547 -35.41696548461914,23.04326057434082 C-35.41696548461914,23.04326057434082 -35.41696548461914,23.04326057434082 -35.41696548461914,23.04326057434082 C-35.41696548461914,23.04326057434082 -35.493202209472656,-7.9091033935546875 -35.493202209472656,-7.9091033935546875 C-35.493202209472656,-7.9091033935546875 -35.493202209472656,-7.9091033935546875 -35.493202209472656,-7.9091033935546875 C-35.493202209472656,-14.832103729248047 -41.106201171875,-20.44510269165039 -48.02920150756836,-20.44510269165039 C-48.02920150756836,-20.44510269165039 -76.04920196533203,-20.627103805541992 -76.04920196533203,-20.627103805541992"/></g><g opacity="1" transform="matrix(1,0,0,1,0,0)"><path stroke-linecap="round" stroke-linejoin="round" fill-opacity="0" class="primary" stroke="rgb(16,145,32)" stroke-opacity="1" stroke-width="18" d=" M-68.99153900146484,2.6569294929504395 C-68.99153900146484,-23.65918731689453 -103.00115966796875,-44.992156982421875 -144.95416259765625,-44.992156982421875 C-186.90716552734375,-44.992156982421875 -220.91653442382812,-23.65918731689453 -220.91653442382812,2.6569294929504395 C-220.91700744628906,2.6570000648498535 -220.91700744628906,2.6570000648498535 -220.91700744628906,2.6570000648498535"/></g></g><g transform="matrix(0.7071067690849304,-0.7071067690849304,0.7071067690849304,0.7071067690849304,211.443603515625,204.69808959960938)" opacity="1" style="display: none;"><g opacity="1" transform="matrix(1,0,0,1,0,0)"><path stroke-linecap="round" stroke-linejoin="round" fill-opacity="0" class="secondary" stroke="rgb(8,168,138)" stroke-opacity="1" stroke-width="18" d=" M-35.37099838256836,25.871999740600586 C-35.37099838256836,25.871999740600586 112.8010025024414,25.569000244140625 112.8010025024414,25.569000244140625 C112.8010025024414,25.569000244140625 112.8010025024414,54.604000091552734 112.8010025024414,54.604000091552734 C112.8010025024414,54.604000091552734 144.2169952392578,54.604000091552734 144.2169952392578,54.604000091552734 C144.2169952392578,54.604000091552734 144.2169952392578,36.5629997253418 144.2169952392578,36.5629997253418 C144.2169952392578,36.5629997253418 175.63400268554688,36.5629997253418 175.63400268554688,36.5629997253418 C175.63400268554688,36.5629997253418 175.63400268554688,54.604000091552734 175.63400268554688,54.604000091552734 C175.63400268554688,54.604000091552734 207.05099487304688,54.604000091552734 207.05099487304688,54.604000091552734 C207.05099487304688,54.604000091552734 207.05099487304688,25.569000244140625 207.05099487304688,25.569000244140625 C207.05099487304688,25.569000244140625 220.02099609375,25.496999740600586 220.02099609375,25.496999740600586 C226.156005859375,25.496999740600586 231.1280059814453,20.52400016784668 231.1280059814453,14.388999938964844 C231.1280059814453,14.388999938964844 231.1280059814453,-0.17499999701976776 231.1280059814453,-0.17499999701976776 C231.1280059814453,-6.309999942779541 226.156005859375,-11.282999992370605 220.02099609375,-11.282999992370605 C220.02099609375,-11.282999992370605 -35.37099838256836,-10.907999992370605 -35.37099838256836,-10.907999992370605"/></g></g><g transform="matrix(0.7071067690849304,-0.7071067690849304,0.7071067690849304,0.7071067690849304,211.443603515625,204.69808959960938)" opacity="1" style="display: none;"><g opacity="1" transform="matrix(1,0,0,1,0,0)"><path stroke-linecap="round" stroke-linejoin="round" fill-opacity="0" class="primary" stroke="rgb(16,145,32)" stroke-opacity="1" stroke-width="18" d=" M-68.90599822998047,7.218999862670898 C-68.90599822998047,7.218999862670898 -68.90599822998047,7.218999862670898 -68.90599822998047,7.218999862670898 M-220.875,7.375 C-220.875,7.375 -220.875,7.25 -220.875,7.25 M-69.00199890136719,7.142000198364258 C-69.00199890136719,-34.59199905395508 -103.01200103759766,-68.42500305175781 -144.96499633789062,-68.42500305175781 C-186.91799926757812,-68.42500305175781 -220.927001953125,-34.59199905395508 -220.927001953125,7.142000198364258 C-220.927001953125,48.875999450683594 -186.91799926757812,82.70800018310547 -144.96499633789062,82.70800018310547 C-103.01200103759766,82.70800018310547 -69.00199890136719,48.875999450683594 -69.00199890136719,7.142000198364258z M-99.72200012207031,7.142000198364258 C-99.72200012207031,-17.71500015258789 -119.97799682617188,-37.8650016784668 -144.96499633789062,-37.8650016784668 C-169.95199584960938,-37.8650016784668 -190.20799255371094,-17.71500015258789 -190.20799255371094,7.142000198364258 C-190.20799255371094,31.999000549316406 -169.95199584960938,52.14799880981445 -144.96499633789062,52.14799880981445 C-119.97799682617188,52.14799880981445 -99.72200012207031,31.999000549316406 -99.72200012207031,7.142000198364258z M-69.00199890136719,7.142000198364258 C-69.00199890136719,-34.59199905395508 -103.01200103759766,-68.42500305175781 -144.96499633789062,-68.42500305175781 C-186.91799926757812,-68.42500305175781 -220.927001953125,-34.59199905395508 -220.927001953125,7.142000198364258 C-220.927001953125,48.875999450683594 -186.91799926757812,82.70800018310547 -144.96499633789062,82.70800018310547 C-103.01200103759766,82.70800018310547 -69.00199890136719,48.875999450683594 -69.00199890136719,7.142000198364258z M-99.72200012207031,7.142000198364258 C-99.72200012207031,-17.71500015258789 -119.97799682617188,-37.8650016784668 -144.96499633789062,-37.8650016784668 C-169.95199584960938,-37.8650016784668 -190.20799255371094,-17.71500015258789 -190.20799255371094,7.142000198364258 C-190.20799255371094,31.999000549316406 -169.95199584960938,52.14799880981445 -144.96499633789062,52.14799880981445 C-119.97799682617188,52.14799880981445 -99.72200012207031,31.999000549316406 -99.72200012207031,7.142000198364258z M-75.927001953125,44.553001403808594 C-75.927001953125,44.553001403808594 -47.90700149536133,44.736000061035156 -47.90700149536133,44.736000061035156 C-40.98400115966797,44.736000061035156 -35.37099838256836,39.12200164794922 -35.37099838256836,32.19900131225586 C-35.37099838256836,32.19900131225586 -35.37099838256836,32.19900131225586 -35.37099838256836,32.19900131225586 C-35.37099838256836,32.19900131225586 -35.37099838256836,-17.236000061035156 -35.37099838256836,-17.236000061035156 C-35.37099838256836,-17.236000061035156 -35.37099838256836,-17.236000061035156 -35.37099838256836,-17.236000061035156 C-35.37099838256836,-24.159000396728516 -40.98400115966797,-29.77199935913086 -47.90700149536133,-29.77199935913086 C-47.90700149536133,-29.77199935913086 -75.927001953125,-29.95400047302246 -75.927001953125,-29.95400047302246"/></g></g><g transform="matrix(0.7071067690849304,-0.7071067690849304,-0.7071067690849304,-0.7071067690849304,221.54391479492188,216.44540405273438)" opacity="1" style="display: none;"><g opacity="1" transform="matrix(1,0,0,1,0,0)"><path stroke-linecap="round" stroke-linejoin="round" fill-opacity="0" class="secondary" stroke="rgb(8,168,138)" stroke-opacity="1" stroke-width="18" d=" M-37.39293670654297,21.474332809448242 C-37.39293670654297,21.474332809448242 112.91622924804688,21.002986907958984 112.91622924804688,21.002986907958984 C112.91622924804688,21.002986907958984 112.91622924804688,23.902246475219727 112.91622924804688,23.902246475219727 C112.91622924804688,23.902246475219727 144.3331298828125,23.902246475219727 144.3331298828125,23.902246475219727 C144.3331298828125,23.902246475219727 144.3331298828125,22.100658416748047 144.3331298828125,22.100658416748047 C144.3331298828125,22.100658416748047 175.75013732910156,22.100658416748047 175.75013732910156,22.100658416748047 C175.75013732910156,22.100658416748047 175.75013732910156,23.902246475219727 175.75013732910156,23.902246475219727 C175.75013732910156,23.902246475219727 207.16622924804688,23.902246475219727 207.16622924804688,23.902246475219727 C207.16622924804688,23.902246475219727 207.16622924804688,21.002986907958984 207.16622924804688,21.002986907958984 C207.16622924804688,21.002986907958984 220.1371307373047,20.995803833007812 220.1371307373047,20.995803833007812 C226.27212524414062,20.995803833007812 231.13160705566406,16.923044204711914 231.13160705566406,10.788043975830078 C231.13160705566406,10.788043975830078 231.24412536621094,5.676554203033447 231.24412536621094,5.676554203033447 C231.24412536621094,-0.4584459364414215 226.27122497558594,-5.431446075439453 220.1371307373047,-5.431446075439453 C220.1371307373047,-5.431446075439453 -37.39293670654297,-4.952918529510498 -37.39293670654297,-4.952918529510498"/></g></g><g transform="matrix(0.7071067690849304,-0.7071067690849304,-0.7071067690849304,-0.7071067690849304,221.54391479492188,216.44540405273438)" opacity="1" style="display: none;"><g opacity="1" transform="matrix(1,0,0,1,0,0)"><path stroke-linecap="round" stroke-linejoin="round" fill-opacity="0" class="primary" stroke="rgb(16,145,32)" stroke-opacity="1" stroke-width="18" d=" M-68.90599822998047,-4.875 C-68.90599822998047,-4.875 -68.90599822998047,20 -68.90599822998047,20 M-220.875,-4.875 C-220.875,-4.875 -220.875,20 -220.875,20 M-99.94599914550781,-4.960999965667725 C-99.94599914550781,-4.895999908447266 -120.2020034790039,-4.8429999351501465 -145.18899536132812,-4.8429999351501465 C-170.17599487304688,-4.8429999351501465 -190.4320068359375,-4.895999908447266 -190.4320068359375,-4.960999965667725 C-190.4320068359375,-5.026000022888184 -170.17599487304688,-5.078999996185303 -145.18899536132812,-5.078999996185303 C-120.2020034790039,-5.078999996185303 -99.94599914550781,-5.026000022888184 -99.94599914550781,-4.960999965667725z M-76.0510025024414,20.05299949645996 C-76.0510025024414,20.05299949645996 -48.029998779296875,20.236000061035156 -48.029998779296875,20.236000061035156 C-41.106998443603516,20.236000061035156 -35.49399948120117,14.621999740600586 -35.49399948120117,7.698999881744385 C-35.49399948120117,7.698999881744385 -35.49399948120117,7.698999881744385 -35.49399948120117,7.698999881744385 C-35.49399948120117,7.698999881744385 -35.698001861572266,7.7220001220703125 -35.698001861572266,7.7220001220703125 C-35.698001861572266,7.7220001220703125 -35.698001861572266,7.7220001220703125 -35.698001861572266,7.7220001220703125 C-35.698001861572266,0.7990000247955322 -41.31100082397461,-4.814000129699707 -48.23400115966797,-4.814000129699707 C-48.23400115966797,-4.814000129699707 -76.25399780273438,-4.995999813079834 -76.25399780273438,-4.995999813079834"/></g><g opacity="1" transform="matrix(1,0,0,1,0,0)"><path stroke-linecap="round" stroke-linejoin="round" fill-opacity="0" class="primary" stroke="rgb(16,145,32)" stroke-opacity="1" stroke-width="18" d=" M-68.9739990234375,-4.857999801635742 C-68.9739990234375,-4.748000144958496 -102.98300170898438,-4.659999847412109 -144.93600463867188,-4.659999847412109 C-186.88900756835938,-4.659999847412109 -220.8990020751953,-4.748000144958496 -220.8990020751953,-4.857999801635742 C-220.8990020751953,-4.9679999351501465 -186.88900756835938,-5.057000160217285 -144.93600463867188,-5.057000160217285 C-102.98300170898438,-5.057000160217285 -68.9739990234375,-4.9679999351501465 -68.9739990234375,-4.857999801635742z"/></g><g opacity="1" transform="matrix(1,0,0,1,0,0)"><path stroke-linecap="round" stroke-linejoin="round" fill-opacity="0" class="primary" stroke="rgb(16,145,32)" stroke-opacity="1" stroke-width="18" d=" M-68.87300109863281,20.142000198364258 C-68.87300109863281,20.031999588012695 -102.88200378417969,19.94300079345703 -144.8350067138672,19.94300079345703 C-186.78799438476562,19.94300079345703 -220.7969970703125,20.031999588012695 -220.79800415039062,20.142000198364258"/></g></g></g></g></svg>