<svg xmlns="http://www.w3.org/2000/svg" xmlns:xlink="http://www.w3.org/1999/xlink" viewBox="0 0 430 430" width="430" height="430" preserveAspectRatio="xMidYMid meet" style="width: 100%; height: 100%; transform: translate3d(0px, 0px, 0px); content-visibility: visible;"><defs><clipPath id="__lottie_element_147"><rect width="430" height="430" x="0" y="0"/></clipPath><clipPath id="__lottie_element_149"><path d="M0,0 L430,0 L430,430 L0,430z"/></clipPath></defs><g clip-path="url(#__lottie_element_147)"><g clip-path="url(#__lottie_element_149)" transform="matrix(1,0,0,1,0,0)" opacity="1" style="display: block;"><g transform="matrix(0.7071067690849304,-0.7071067690849304,0.7071067690849304,0.7071067690849304,211.443603515625,204.69808959960938)" opacity="1" style="display: none;"><g opacity="1" transform="matrix(1,0,0,1,0,0)"><path stroke-linecap="round" stroke-linejoin="round" fill-opacity="0" class="secondary" stroke="rgb(8,168,138)" stroke-opacity="1" stroke-width="18" d=" M-37.39119338989258,21.478126525878906 C-37.39119338989258,21.478126525878906 112.91613006591797,21.006925582885742 112.91613006591797,21.006925582885742 C112.91613006591797,21.006925582885742 112.91613006591797,23.92873191833496 112.91613006591797,23.92873191833496 C112.91613006591797,23.92873191833496 144.33302307128906,23.92873191833496 144.33302307128906,23.92873191833496 C144.33302307128906,23.92873191833496 144.33302307128906,22.113136291503906 144.33302307128906,22.113136291503906 C144.33302307128906,22.113136291503906 175.75003051757812,22.113136291503906 175.75003051757812,22.113136291503906 C175.75003051757812,22.113136291503906 175.75003051757812,23.92873191833496 175.75003051757812,23.92873191833496 C175.75003051757812,23.92873191833496 207.1661376953125,23.92873191833496 207.1661376953125,23.92873191833496 C207.1661376953125,23.92873191833496 207.1661376953125,21.006925582885742 207.1661376953125,21.006925582885742 C207.1661376953125,21.006925582885742 220.13702392578125,20.99968719482422 220.13702392578125,20.99968719482422 C226.27203369140625,20.99968719482422 231.131591796875,16.926149368286133 231.131591796875,10.791150093078613 C231.131591796875,10.791150093078613 231.24403381347656,5.671505928039551 231.24403381347656,5.671505928039551 C231.24403381347656,-0.46349403262138367 226.27113342285156,-5.436493873596191 220.13702392578125,-5.436493873596191 C220.13702392578125,-5.436493873596191 -37.39119338989258,-4.9580559730529785 -37.39119338989258,-4.9580559730529785"/></g></g><g transform="matrix(0.7071067690849304,-0.7071067690849304,0.7071067690849304,0.7071067690849304,211.443603515625,204.69808959960938)" opacity="1" style="display: none;"><g opacity="1" transform="matrix(1,0,0,1,0,0)"><path stroke-linecap="round" stroke-linejoin="round" fill-opacity="0" class="primary" stroke="rgb(16,145,32)" stroke-opacity="1" stroke-width="18" d=" M-68.90599822998047,-3.6590988636016846 C-68.90599822998047,-3.6590988636016846 -68.90599822998047,18.715028762817383 -68.90599822998047,18.715028762817383 M-220.875,-3.6434149742126465 C-220.875,-3.6434149742126465 -220.875,18.7181453704834 -220.875,18.7181453704834 M-68.88597106933594,18.834911346435547 C-68.88597106933594,23.151704788208008 -102.89507293701172,26.65013885498047 -144.8480682373047,26.65013885498047 C-186.8010711669922,26.65013885498047 -220.81097412109375,23.151704788208008 -220.81097412109375,18.834911346435547 C-220.81097412109375,14.518118858337402 -186.8010711669922,11.018885612487793 -144.8480682373047,11.018885612487793 C-102.89507293701172,11.018885612487793 -68.88597106933594,14.518118858337402 -68.88597106933594,18.834911346435547z M-99.60507202148438,18.835012435913086 C-99.60507202148438,21.405609130859375 -119.86106872558594,23.489768981933594 -144.8480682373047,23.489768981933594 C-169.83506774902344,23.489768981933594 -190.0919647216797,21.405508041381836 -190.0919647216797,18.834911346435547 C-190.0919647216797,16.264314651489258 -169.83506774902344,14.179255485534668 -144.8480682373047,14.179255485534668 C-119.86106872558594,14.179255485534668 -99.60507202148438,16.264415740966797 -99.60507202148438,18.835012435913086z M-76.03853607177734,22.516170501708984 C-76.03853607177734,22.516170501708984 -48.017635345458984,22.699169158935547 -48.017635345458984,22.699169158935547 C-41.094635009765625,22.699169158935547 -35.481632232666016,17.08517074584961 -35.481632232666016,10.162169456481934 C-35.481632232666016,10.162169456481934 -35.481632232666016,10.162169456481934 -35.481632232666016,10.162169456481934 C-35.481632232666016,10.162169456481934 -35.665122985839844,5.2127838134765625 -35.665122985839844,5.2127838134765625 C-35.665122985839844,5.2127838134765625 -35.665122985839844,5.2127838134765625 -35.665122985839844,5.2127838134765625 C-35.665122985839844,-1.7102160453796387 -41.27812576293945,-7.323215961456299 -48.20112609863281,-7.323215961456299 C-48.20112609863281,-7.323215961456299 -76.22112274169922,-7.505216121673584 -76.22112274169922,-7.505216121673584"/></g><g opacity="1" transform="matrix(1,0,0,1,0,0)"><path stroke-linecap="round" stroke-linejoin="round" fill-opacity="0" class="primary" stroke="rgb(16,145,32)" stroke-opacity="1" stroke-width="18" d=" M-68.97681427001953,-3.6516499519348145 C-68.97681427001953,-7.968442440032959 -102.98591613769531,-11.467676162719727 -144.9389190673828,-11.467676162719727 C-186.89199829101562,-11.468000411987305 -220.9010009765625,-7.968999862670898 -220.90199279785156,-3.6519999504089355"/></g></g><g transform="matrix(0.7071067690849304,-0.7071067690849304,0.7071067690849304,0.7071067690849304,211.443603515625,204.69808959960938)" opacity="1" style="display: none;"><g opacity="1" transform="matrix(1,0,0,1,0,0)"><path stroke-linecap="round" stroke-linejoin="round" fill-opacity="0" class="secondary" stroke="rgb(8,168,138)" stroke-opacity="1" stroke-width="18" d=" M-35.37099838256836,25.871999740600586 C-35.37099838256836,25.871999740600586 112.8010025024414,25.569000244140625 112.8010025024414,25.569000244140625 C112.8010025024414,25.569000244140625 112.8010025024414,54.604000091552734 112.8010025024414,54.604000091552734 C112.8010025024414,54.604000091552734 144.2169952392578,54.604000091552734 144.2169952392578,54.604000091552734 C144.2169952392578,54.604000091552734 144.2169952392578,36.5629997253418 144.2169952392578,36.5629997253418 C144.2169952392578,36.5629997253418 175.63400268554688,36.5629997253418 175.63400268554688,36.5629997253418 C175.63400268554688,36.5629997253418 175.63400268554688,54.604000091552734 175.63400268554688,54.604000091552734 C175.63400268554688,54.604000091552734 207.05099487304688,54.604000091552734 207.05099487304688,54.604000091552734 C207.05099487304688,54.604000091552734 207.05099487304688,25.569000244140625 207.05099487304688,25.569000244140625 C207.05099487304688,25.569000244140625 220.02099609375,25.496999740600586 220.02099609375,25.496999740600586 C226.156005859375,25.496999740600586 231.1280059814453,20.52400016784668 231.1280059814453,14.388999938964844 C231.1280059814453,14.388999938964844 231.1280059814453,-0.17499999701976776 231.1280059814453,-0.17499999701976776 C231.1280059814453,-6.309999942779541 226.156005859375,-11.282999992370605 220.02099609375,-11.282999992370605 C220.02099609375,-11.282999992370605 -35.37099838256836,-10.907999992370605 -35.37099838256836,-10.907999992370605"/></g></g><g transform="matrix(0.7071067690849304,-0.7071067690849304,0.7071067690849304,0.7071067690849304,211.443603515625,204.69808959960938)" opacity="1" style="display: none;"><g opacity="1" transform="matrix(1,0,0,1,0,0)"><path stroke-linecap="round" stroke-linejoin="round" fill-opacity="0" class="primary" stroke="rgb(16,145,32)" stroke-opacity="1" stroke-width="18" d=" M-68.90599822998047,7.218999862670898 C-68.90599822998047,7.218999862670898 -68.90599822998047,7.218999862670898 -68.90599822998047,7.218999862670898 M-220.875,7.375 C-220.875,7.375 -220.875,7.25 -220.875,7.25 M-69.00199890136719,7.142000198364258 C-69.00199890136719,-34.59199905395508 -103.01200103759766,-68.42500305175781 -144.96499633789062,-68.42500305175781 C-186.91799926757812,-68.42500305175781 -220.927001953125,-34.59199905395508 -220.927001953125,7.142000198364258 C-220.927001953125,48.875999450683594 -186.91799926757812,82.70800018310547 -144.96499633789062,82.70800018310547 C-103.01200103759766,82.70800018310547 -69.00199890136719,48.875999450683594 -69.00199890136719,7.142000198364258z M-99.72200012207031,7.142000198364258 C-99.72200012207031,-17.71500015258789 -119.97799682617188,-37.8650016784668 -144.96499633789062,-37.8650016784668 C-169.95199584960938,-37.8650016784668 -190.20799255371094,-17.71500015258789 -190.20799255371094,7.142000198364258 C-190.20799255371094,31.999000549316406 -169.95199584960938,52.14799880981445 -144.96499633789062,52.14799880981445 C-119.97799682617188,52.14799880981445 -99.72200012207031,31.999000549316406 -99.72200012207031,7.142000198364258z M-69.00199890136719,7.142000198364258 C-69.00199890136719,-34.59199905395508 -103.01200103759766,-68.42500305175781 -144.96499633789062,-68.42500305175781 C-186.91799926757812,-68.42500305175781 -220.927001953125,-34.59199905395508 -220.927001953125,7.142000198364258 C-220.927001953125,48.875999450683594 -186.91799926757812,82.70800018310547 -144.96499633789062,82.70800018310547 C-103.01200103759766,82.70800018310547 -69.00199890136719,48.875999450683594 -69.00199890136719,7.142000198364258z M-99.72200012207031,7.142000198364258 C-99.72200012207031,-17.71500015258789 -119.97799682617188,-37.8650016784668 -144.96499633789062,-37.8650016784668 C-169.95199584960938,-37.8650016784668 -190.20799255371094,-17.71500015258789 -190.20799255371094,7.142000198364258 C-190.20799255371094,31.999000549316406 -169.95199584960938,52.14799880981445 -144.96499633789062,52.14799880981445 C-119.97799682617188,52.14799880981445 -99.72200012207031,31.999000549316406 -99.72200012207031,7.142000198364258z M-75.927001953125,44.553001403808594 C-75.927001953125,44.553001403808594 -47.90700149536133,44.736000061035156 -47.90700149536133,44.736000061035156 C-40.98400115966797,44.736000061035156 -35.37099838256836,39.12200164794922 -35.37099838256836,32.19900131225586 C-35.37099838256836,32.19900131225586 -35.37099838256836,32.19900131225586 -35.37099838256836,32.19900131225586 C-35.37099838256836,32.19900131225586 -35.37099838256836,-17.236000061035156 -35.37099838256836,-17.236000061035156 C-35.37099838256836,-17.236000061035156 -35.37099838256836,-17.236000061035156 -35.37099838256836,-17.236000061035156 C-35.37099838256836,-24.159000396728516 -40.98400115966797,-29.77199935913086 -47.90700149536133,-29.77199935913086 C-47.90700149536133,-29.77199935913086 -75.927001953125,-29.95400047302246 -75.927001953125,-29.95400047302246"/></g></g><g transform="matrix(0.7071067690849304,-0.7071067690849304,-0.7071067690849304,-0.7071067690849304,221.54391479492188,216.44540405273438)" opacity="1" style="display: block;"><g opacity="1" transform="matrix(1,0,0,1,0,0)"><path stroke-linecap="round" stroke-linejoin="round" fill-opacity="0" class="secondary" stroke="rgb(8,168,138)" stroke-opacity="1" stroke-width="18" d=" M-35.6143684387207,25.342676162719727 C-35.6143684387207,25.342676162719727 112.81487274169922,25.019412994384766 112.81487274169922,25.019412994384766 C112.81487274169922,25.019412994384766 112.81487274169922,50.908592224121094 112.81487274169922,50.908592224121094 C112.81487274169922,50.908592224121094 144.23097229003906,50.908592224121094 144.23097229003906,50.908592224121094 C144.23097229003906,50.908592224121094 144.23097229003906,34.822242736816406 144.23097229003906,34.822242736816406 C144.23097229003906,34.822242736816406 175.64797973632812,34.822242736816406 175.64797973632812,34.822242736816406 C175.64797973632812,34.822242736816406 175.64797973632812,50.908592224121094 175.64797973632812,50.908592224121094 C175.64797973632812,50.908592224121094 207.0648651123047,50.908592224121094 207.0648651123047,50.908592224121094 C207.0648651123047,50.908592224121094 207.0648651123047,25.019412994384766 207.0648651123047,25.019412994384766 C207.0648651123047,25.019412994384766 220.03497314453125,24.955215454101562 220.03497314453125,24.955215454101562 C226.16998291015625,24.955215454101562 231.12843322753906,20.090572357177734 231.12843322753906,13.955572128295898 C231.12843322753906,13.955572128295898 231.14198303222656,0.5293207764625549 231.14198303222656,0.5293207764625549 C231.14198303222656,-5.605679035186768 226.1698760986328,-10.578679084777832 220.03497314453125,-10.578679084777832 C220.03497314453125,-10.578679084777832 -35.6143684387207,-10.191218376159668 -35.6143684387207,-10.191218376159668"/></g></g><g transform="matrix(0.7071067690849304,-0.7071067690849304,-0.7071067690849304,-0.7071067690849304,221.54391479492188,216.44540405273438)" opacity="1" style="display: block;"><g opacity="1" transform="matrix(1,0,0,1,0,0)"><path stroke-linecap="round" stroke-linejoin="round" fill-opacity="0" class="primary" stroke="rgb(16,145,32)" stroke-opacity="1" stroke-width="18" d=" M-68.90599822998047,5.908529758453369 C-68.90599822998047,5.908529758453369 -68.90599822998047,8.603911399841309 -68.90599822998047,8.603911399841309 M-220.875,6.047626495361328 C-220.875,6.047626495361328 -220.875,8.631552696228027 -220.875,8.631552696228027 M-99.70791625976562,8.550641059875488 C-99.70791625976562,-13.605884552001953 -119.96391296386719,-31.566747665405273 -144.95091247558594,-31.566747665405273 C-169.9379119873047,-31.566747665405273 -190.1940155029297,-13.605884552001953 -190.1940155029297,8.550641059875488 C-190.1940155029297,30.70716667175293 -169.9379119873047,48.667030334472656 -144.95091247558594,48.667030334472656 C-119.96391296386719,48.667030334472656 -99.70791625976562,30.70716667175293 -99.70791625976562,8.550641059875488z M-75.94043731689453,41.89825439453125 C-75.94043731689453,41.89825439453125 -47.920326232910156,42.08125305175781 -47.920326232910156,42.08125305175781 C-40.99732971191406,42.08125305175781 -35.38432693481445,36.46725082397461 -35.38432693481445,29.544252395629883 C-35.38432693481445,29.544252395629883 -35.38432693481445,29.544252395629883 -35.38432693481445,29.544252395629883 C-35.38432693481445,29.544252395629883 -35.40643310546875,-14.531624794006348 -35.40643310546875,-14.531624794006348 C-35.40643310546875,-14.531624794006348 -35.40643310546875,-14.531624794006348 -35.40643310546875,-14.531624794006348 C-35.40643310546875,-21.45462417602539 -41.019432067871094,-27.067625045776367 -47.94243240356445,-27.067625045776367 C-47.94243240356445,-27.067625045776367 -75.96243286132812,-27.249624252319336 -75.96243286132812,-27.249624252319336"/></g><g opacity="1" transform="matrix(1,0,0,1,0,0)"><path stroke-linecap="round" stroke-linejoin="round" fill-opacity="0" class="primary" stroke="rgb(16,145,32)" stroke-opacity="1" stroke-width="18" d=" M-68.99896240234375,5.841715335845947 C-68.99896240234375,-31.358192443847656 -103.00885772705078,-61.5156135559082 -144.96185302734375,-61.5156135559082 C-186.9149932861328,-61.51599884033203 -220.9239959716797,-31.358999252319336 -220.9239959716797,5.841000080108643"/></g><g opacity="1" transform="matrix(1,0,0,1,0,0)"><path stroke-linecap="round" stroke-linejoin="round" fill-opacity="0" class="primary" stroke="rgb(16,145,32)" stroke-opacity="1" stroke-width="18" d=" M-68.98802185058594,8.550641059875488 C-68.98802185058594,45.75054931640625 -102.99791717529297,75.90696716308594 -144.95091247558594,75.90696716308594 C-186.90391540527344,75.90696716308594 -220.91302490234375,45.75054931640625 -220.91302490234375,8.550641059875488 C-220.91302490234375,-28.649267196655273 -186.90391540527344,-58.80668640136719 -144.95091247558594,-58.80668640136719 C-102.99791717529297,-58.80668640136719 -68.98802185058594,-28.649267196655273 -68.98802185058594,8.550641059875488z"/></g></g></g></g></svg>